<svg width="35" height="28" viewBox="0 0 35 28" fill="none" xmlns="http://www.w3.org/2000/svg">
<g filter="url(#filter0_d_4_108)">
<path d="M28.75 0H11.875C11.0988 0 10.4912 0.388889 10.0862 0.977778L4 10L10.0862 19.0111C10.4912 19.6 11.0988 20 11.875 20H28.75C29.9875 20 31 19 31 17.7778V2.22222C31 1 29.9875 0 28.75 0ZM25.375 13.9889L23.7888 15.5556L19.75 11.5667L15.7112 15.5556L14.125 13.9889L18.1638 10L14.125 6.01111L15.7112 4.44444L19.75 8.43333L23.7888 4.44444L25.375 6.01111L21.3362 10L25.375 13.9889Z" fill="white"/>
</g>
<defs>
<filter id="filter0_d_4_108" x="0" y="0" width="35" height="28" filterUnits="userSpaceOnUse" color-interpolation-filters="sRGB">
<feFlood flood-opacity="0" result="BackgroundImageFix"/>
<feColorMatrix in="SourceAlpha" type="matrix" values="0 0 0 0 0 0 0 0 0 0 0 0 0 0 0 0 0 0 127 0" result="hardAlpha"/>
<feOffset dy="4"/>
<feGaussianBlur stdDeviation="2"/>
<feComposite in2="hardAlpha" operator="out"/>
<feColorMatrix type="matrix" values="0 0 0 0 0 0 0 0 0 0 0 0 0 0 0 0 0 0 0.25 0"/>
<feBlend mode="normal" in2="BackgroundImageFix" result="effect1_dropShadow_4_108"/>
<feBlend mode="normal" in="SourceGraphic" in2="effect1_dropShadow_4_108" result="shape"/>
</filter>
</defs>
</svg>
