<svg width="358" height="358" viewBox="0 0 358 358" fill="none" xmlns="http://www.w3.org/2000/svg">
<path d="M176.167 50.9954C176.076 49.3686 177.371 48 179 48C180.629 48 181.924 49.3686 181.834 50.9954L181.5 57L181.053 74.0007C181.023 75.1133 180.113 76 179 76C177.887 76 176.977 75.1133 176.948 74.0007L176.5 57L176.167 50.9954Z" fill="#0A0C16"/>
<path d="M176.167 307.005C176.076 308.631 177.371 310 179 310C180.629 310 181.924 308.631 181.834 307.005L181.5 301L181.053 283.999C181.023 282.887 180.113 282 179 282C177.887 282 176.977 282.887 176.948 283.999L176.5 301L176.167 307.005Z" fill="#0A0C16"/>
<path d="M307.005 176.172C308.631 176.082 310 177.377 310 179.006C310 180.635 308.631 181.93 307.004 181.84L301 181.506L283.999 181.058C282.887 181.028 282 180.118 282 179.005C282 177.892 282.887 176.982 283.999 176.952L301 176.506L307.005 176.172Z" fill="#0A0C16"/>
<path d="M50.9955 176.16C49.3688 176.07 48.0001 177.365 48 178.994C47.9999 180.623 49.3685 181.918 50.9953 181.828L56.9999 181.494L74.0006 181.048C75.1132 181.018 76 180.108 76 178.995C76.0001 177.882 75.1134 176.972 74.0008 176.942L57.0001 176.494L50.9955 176.16Z" fill="#0A0C16"/>
<path d="M112.871 68.2192C112.275 67.3119 112.565 66.0902 113.506 65.5475C114.446 65.0048 115.649 65.3646 116.136 66.3344L117.842 69.725L123.025 79.2973C123.378 79.95 123.148 80.7654 122.505 81.1364C121.862 81.5075 121.041 81.2993 120.652 80.6669L114.955 71.3915L112.871 68.2192Z" fill="#0A0C16"/>
<path d="M241.864 291.666C242.352 292.635 243.555 292.995 244.495 292.452C245.435 291.91 245.725 290.688 245.129 289.781L243.045 286.609L237.348 277.333C236.959 276.701 236.138 276.493 235.495 276.864C234.853 277.235 234.622 278.05 234.975 278.703L240.159 288.275L241.864 291.666Z" fill="#0A0C16"/>
<path d="M289.781 112.872C290.689 112.276 291.91 112.566 292.453 113.506C292.996 114.446 292.636 115.649 291.666 116.137L288.275 117.842L278.703 123.025C278.05 123.378 277.235 123.147 276.864 122.505C276.493 121.862 276.701 121.041 277.333 120.652L286.609 114.955L289.781 112.872Z" fill="#0A0C16"/>
<path d="M66.3346 241.864C65.3649 242.351 65.005 243.554 65.5477 244.494C66.0903 245.435 67.3119 245.725 68.2193 245.129L71.3917 243.046L80.6674 237.349C81.2998 236.96 81.508 236.139 81.137 235.496C80.7659 234.853 79.9506 234.623 79.2979 234.976L69.7253 240.159L66.3346 241.864Z" fill="#0A0C16"/>
<path d="M66.3402 116.126C65.3705 115.638 65.0109 114.435 65.5536 113.495C66.0964 112.555 67.3181 112.265 68.2253 112.861L71.3975 114.945L80.6723 120.643C81.3047 121.032 81.5128 121.853 81.1417 122.496C80.7706 123.138 79.9552 123.369 79.3025 123.015L69.7307 117.831L66.3402 116.126Z" fill="#0A0C16"/>
<path d="M289.775 245.139C290.682 245.735 291.904 245.445 292.447 244.505C292.989 243.565 292.63 242.362 291.66 241.874L288.269 240.169L278.698 234.985C278.045 234.631 277.23 234.862 276.858 235.504C276.487 236.147 276.695 236.968 277.328 237.357L286.603 243.055L289.775 245.139Z" fill="#0A0C16"/>
<path d="M241.875 66.3404C242.363 65.3708 243.566 65.0111 244.506 65.5539C245.446 66.0968 245.736 67.3185 245.14 68.2257L243.056 71.3977L237.357 80.6723C236.969 81.3047 236.147 81.5127 235.504 81.1416C234.862 80.7704 234.631 79.955 234.985 79.3024L240.169 69.7308L241.875 66.3404Z" fill="#0A0C16"/>
<path d="M112.861 289.775C112.265 290.682 112.555 291.904 113.495 292.446C114.435 292.989 115.638 292.63 116.126 291.66L117.832 288.27L123.016 278.698C123.37 278.045 123.139 277.23 122.496 276.859C121.854 276.488 121.032 276.696 120.644 277.328L114.945 286.603L112.861 289.775Z" fill="#0A0C16"/>
</svg>
